<svg xmlns="http://www.w3.org/2000/svg" xmlns:xlink="http://www.w3.org/1999/xlink" width="336.9" height="261.9" viewBox="0 0 336.9 261.9">
  <defs>
    <filter id="Rectangle_78" x="0" y="0" width="336.9" height="261.9" filterUnits="userSpaceOnUse">
      <feOffset dy="21.85" input="SourceAlpha"/>
      <feGaussianBlur stdDeviation="15.65" result="blur"/>
      <feFlood flood-opacity="0.102"/>
      <feComposite operator="in" in2="blur"/>
      <feComposite in="SourceGraphic"/>
    </filter>
  </defs>
  <g id="Group_149" data-name="Group 149" transform="translate(-645.05 -506.9)">
    <g transform="matrix(1, 0, 0, 1, 645.05, 506.9)" filter="url(#Rectangle_78)">
      <rect id="Rectangle_78-2" data-name="Rectangle 78" width="243" height="168" rx="10" transform="translate(46.95 25.1)" fill="#fff"/>
    </g>
    <g id="Group_148" data-name="Group 148">
      <text id="Total_Balance" data-name="Total Balance" transform="translate(707 549)" font-size="14" font-family="SegoeUI, Segoe UI"><tspan x="3" y="15">Total Balance</tspan></text>
      <g id="Group_147" data-name="Group 147">
        <text id="_4_200" data-name="$4,200" transform="translate(708 565)" font-size="16" font-family="SegoeUI-Bold, Segoe UI" font-weight="700"><tspan x="0" y="17">$4,200</tspan></text>
        <text id="_14_" data-name="+14%" transform="translate(766 575)" fill="#00e1f0" font-size="13" font-family="SegoeUI, Segoe UI"><tspan x="0" y="14">+14</tspan></text>
      </g>
    </g>
    <g id="Group_146" data-name="Group 146">
      <text id="_10k" data-name="10k" transform="translate(706 603)" fill="#718ebf" font-size="8" font-family="SegoeUI, Segoe UI"><tspan x="0" y="9">10k</tspan></text>
      <text id="_4k" data-name="4k" transform="translate(710 622)" fill="#718ebf" font-size="8" font-family="SegoeUI, Segoe UI"><tspan x="0" y="9">4k</tspan></text>
      <text id="_2k" data-name="2k" transform="translate(710 641)" fill="#718ebf" font-size="8" font-family="SegoeUI, Segoe UI"><tspan x="0" y="9">2k</tspan></text>
      <text id="_0" data-name="0" transform="translate(713 661)" fill="#718ebf" font-size="8" font-family="SegoeUI, Segoe UI"><tspan x="1" y="9">0</tspan></text>
    </g>
    <g id="Group_145" data-name="Group 145">
      <g id="Group_144" data-name="Group 144">
        <text id="S" transform="translate(735 673)" fill="#718ebf" font-size="8" font-family="SegoeUI, Segoe UI"><tspan x="0" y="9">S</tspan></text>
        <path id="Rectangle_79" data-name="Rectangle 79" d="M3,0H17a3,3,0,0,1,3,3v9a0,0,0,0,1,0,0H0a0,0,0,0,1,0,0V3A3,3,0,0,1,3,0Z" transform="translate(727 658)" fill="#e8f2ff"/>
      </g>
      <g id="Group_143" data-name="Group 143">
        <text id="M" transform="translate(758 673)" fill="#718ebf" font-size="8" font-family="SegoeUI, Segoe UI"><tspan x="0" y="9">M</tspan></text>
        <path id="Rectangle_80" data-name="Rectangle 80" d="M3,0H17a3,3,0,0,1,3,3V18a0,0,0,0,1,0,0H0a0,0,0,0,1,0,0V3A3,3,0,0,1,3,0Z" transform="translate(751 652)" fill="#e8f2ff"/>
      </g>
      <g id="Group_142" data-name="Group 142">
        <text id="T" transform="translate(783 673)" fill="#718ebf" font-size="8" font-family="SegoeUI, Segoe UI"><tspan x="0" y="9">T</tspan></text>
        <path id="Rectangle_81" data-name="Rectangle 81" d="M3,0H17a3,3,0,0,1,3,3V42a0,0,0,0,1,0,0H0a0,0,0,0,1,0,0V3A3,3,0,0,1,3,0Z" transform="translate(775 628)" fill="#e8f2ff"/>
      </g>
      <g id="Group_150" data-name="Group 150">
        <text id="W" transform="translate(805 673)" fill="#718ebf" font-size="8" font-family="SegoeUI, Segoe UI"><tspan x="0" y="9">W</tspan></text>
        <path id="Rectangle_82" data-name="Rectangle 82" d="M3,0H17a3,3,0,0,1,3,3V31a0,0,0,0,1,0,0H0a0,0,0,0,1,0,0V3A3,3,0,0,1,3,0Z" transform="translate(799 639)" fill="#3734a9"/>
      </g>
      <g id="Group_141" data-name="Group 141">
        <text id="T-2" data-name="T" transform="translate(831 673)" fill="#718ebf" font-size="8" font-family="SegoeUI, Segoe UI"><tspan x="0" y="9">T</tspan></text>
        <path id="Rectangle_83" data-name="Rectangle 83" d="M3,0H17a3,3,0,0,1,3,3V59a0,0,0,0,1,0,0H0a0,0,0,0,1,0,0V3A3,3,0,0,1,3,0Z" transform="translate(823 611)" fill="#3734a9"/>
      </g>
      <g id="Group_140" data-name="Group 140">
        <text id="F" transform="translate(856 673)" fill="#718ebf" font-size="8" font-family="SegoeUI, Segoe UI"><tspan x="0" y="9">F</tspan></text>
        <path id="Rectangle_84" data-name="Rectangle 84" d="M3,0H17a3,3,0,0,1,3,3v9a0,0,0,0,1,0,0H0a0,0,0,0,1,0,0V3A3,3,0,0,1,3,0Z" transform="translate(847 658)" fill="#e8f2ff"/>
      </g>
      <g id="Group_139" data-name="Group 139">
        <text id="S-2" data-name="S" transform="translate(879 673)" fill="#718ebf" font-size="8" font-family="SegoeUI, Segoe UI"><tspan x="0" y="9">S</tspan></text>
        <path id="Rectangle_85" data-name="Rectangle 85" d="M3,0H17a3,3,0,0,1,3,3V31a0,0,0,0,1,0,0H0a0,0,0,0,1,0,0V3A3,3,0,0,1,3,0Z" transform="translate(871 639)" fill="#3734a9"/>
      </g>
      <g id="Group_138" data-name="Group 138">
        <text id="S-3" data-name="S" transform="translate(904 673)" fill="#718ebf" font-size="8" font-family="SegoeUI, Segoe UI"><tspan x="0" y="9">S</tspan></text>
        <path id="Rectangle_86" data-name="Rectangle 86" d="M3,0H17a3,3,0,0,1,3,3V46a0,0,0,0,1,0,0H0a0,0,0,0,1,0,0V3A3,3,0,0,1,3,0Z" transform="translate(895 624)" fill="#3734a9"/>
      </g>
    </g>
  </g>
</svg>
